<svg fill="none" xmlns="http://www.w3.org/2000/svg" viewBox="0.9 0.6 180 180">
  <path fill="#143464" d="M 31.9 44.6 C 31.9 38 37.3 32.6 43.9 32.6 H 66.3 C 72.9 32.6 78.3 38 78.3 44.6 V 135.6 C 78.3 142.2 72.9 147.6 66.3 147.6 H 43.9 C 37.3 147.6 31.9 142.2 31.9 135.6 V 44.6 Z"></path>
  <path d="M 0.9 16.6 C 0.9 7.8 8.1 0.6 16.9 0.6 H 164.9 C 173.7 0.6 180.9 7.8 180.9 16.6 V 164.6 C 180.9 173.4 173.7 180.6 164.9 180.6 H 16.9 C 8.1 180.6 0.9 173.4 0.9 164.6 V 16.6 Z" fill="#fef3c0"></path>
  <path fill-opacity="0.6" d="M 127.4 44.2 C 127.4 37.8 132.6 32.6 139 32.6 C 145.4 32.6 150.6 37.8 150.6 44.2 V 136 C 150.6 142.4 145.4 147.6 139 147.6 C 132.6 147.6 127.4 142.4 127.4 136 V 44.2 Z" fill="#143464"></path>
  <path fill-opacity="0.8" d="M 86.6 44.6 C 86.6 38 92 32.6 98.6 32.6 H 107.1 C 113.7 32.6 119.1 38 119.1 44.6 V 135.6 C 119.1 142.2 113.7 147.6 107.1 147.6 H 98.6 C 92 147.6 86.6 142.2 86.6 135.6 V 44.6 Z" fill="#143464"></path>
  <path fill="#143464" d="M 31.9 44.6 C 31.9 38 37.3 32.6 43.9 32.6 H 66.3 C 72.9 32.6 78.3 38 78.3 44.6 V 135.6 C 78.3 142.2 72.9 147.6 66.3 147.6 H 43.9 C 37.3 147.6 31.9 142.2 31.9 135.6 V 44.6 Z"></path>
</svg>
